<?xml version="1.0" encoding="utf-8"?>
<!-- Generator: Adobe Illustrator 25.4.1, SVG Export Plug-In . SVG Version: 6.00 Build 0)  -->
<svg version="1.1" id="Layer_1" xmlns="http://www.w3.org/2000/svg" xmlns:xlink="http://www.w3.org/1999/xlink" x="0px" y="0px"
	 viewBox="0 0 216 216" style="enable-background:new 0 0 216 216;" xml:space="preserve">
<style type="text/css">
	.st0{fill:none;stroke:#000000;stroke-width:4;stroke-miterlimit:10;}
	.st1{stroke:#000000;stroke-miterlimit:10;}
	.st2{fill:none;stroke:#000000;stroke-width:3;stroke-miterlimit:10;}
	.st3{fill:#FFFFFF;stroke:#000000;stroke-width:3;stroke-miterlimit:10;}
</style>
<path class="st0" d="M8.53,58.43c-0.47,32.12,1.06,46.54,2.39,78.64c0.53,12.81-1.94,17.83,3.1,22.79c2.19,2.15,5.74,2.38,8.96,2.23
	c51.84-2.47,103.35-15.14,155.01-10.51c5.68,0.51,11.99,1.08,16.55-2.04c2.6-1.78,4.19-4.52,5.37-7.28
	c3.4-8.02,3.86-16.77,4.28-25.36c1.19-23.93,2.37-47.85,3.56-71.78c0.15-3.1,0.24-6.44-1.65-9.01c-2.1-2.86-5.5-7.15-14.84-7.15
	c-41.14,0-74.78,0.45-114.85,3.26c-12.56,0.88-25.14,1.37-37.74,1.46c-9.42,0.07-22.05-1.08-26.55,6.45
	C8.83,45.62,8.21,50.67,8.53,58.43z"/>
<path class="st1" d="M191.76,117.51c-0.47-24.65-2.15-35.68-4.14-60.27c-0.79-9.82,0.24-9.57-4.14-13.25
	c-1.9-1.6-10.38-2.52-13.08-2.32c-43.59,3.17-49.95-0.59-95.57,2.73c-4.79,0.35-38.43,5.28-42.19,7.79
	c-2.14,1.43-3.41,3.57-4.32,5.72c-2.64,6.23-2.8,12.96-2.92,19.56c-0.35,18.39-0.7,36.77-1.05,55.16c-0.05,2.38-0.03,4.94,1.64,6.88
	c1.85,2.14,4.82,5.35,12.69,5.12c34.65-1.01,62.97-2.18,96.64-5.32c10.55-0.98,21.14-1.67,31.74-2.05c7.93-0.28,18.6,0.29,22.18-5.6
	C191.85,127.35,192.24,123.46,191.76,117.51z"/>
<path class="st2" d="M93.38,156.01l0.79,4.23c0.42,2.26-1.18,4.37-3.62,4.91c-8.16,1.8-16.15,4.28-23.81,7.41
	c-3.71,1.52-7.52,3.35-10.41,5.88c-2.2,1.93-1.03,5.35,1.98,5.8c13.49,2.03,27.46,0.65,41.12-0.74l57.94-5.89
	c2.48-0.25,4.95-0.88,7-2.17c0.84-0.53,1.57-1.21,1.93-2.08c0.8-1.94-0.59-4.18-2.55-5.24c-1.96-1.06-4.32-1.24-6.6-1.4
	c-6.84-0.46-13.67-0.93-20.51-1.39c-1.85-0.13-3.77-0.27-5.37-1.12c-4.05-2.15-4.05-7.39-4.19-11.82"/>
<path class="st3" d="M127.19,81.44c4.4,10.74,8.87,21.6,15.69,31.01c1.11,1.53,3.3,3.12,4.65,1.78c0.58-0.58,0.65-1.47,0.7-2.27
	c0.27-4.89,0.54-9.78,0.82-14.67c4.82,1.49,9.64,2.97,14.47,4.46c0.89-3.71,1.78-7.42,2.68-11.12c0.12-0.51,0.24-1.07,0.04-1.55
	c-0.38-0.9-1.58-1.03-2.57-1.07c-2.68-0.13-5.34-0.66-7.86-1.58c-0.58-0.21-1.21-0.5-1.43-1.08c-0.32-0.86,0.48-1.71,1.2-2.29
	c3.17-2.57,6.35-5.13,9.52-7.7c0.93-0.75,1.94-2.06,1.17-2.97c-0.22-0.26-0.55-0.41-0.88-0.52c-1.93-0.64-4.03-0.2-6.02,0.24
	c-9.01,2.01-18.02,4.01-27.03,6.02c-1.35,0.3-2.75,0.62-3.84,1.47S126.71,81.98,127.19,81.44z"/>
</svg>
