<svg xmlns="http://www.w3.org/2000/svg" viewBox="0 0 1237.07 207.3"><g id="Layer_2" data-name="Layer 2"><g id="HYfKe6"><path d="M1301.59,417.51c-9.85,2-18.71-.62-26.7-6.2-5.79-4.05-5.58-4.25-9.35,1.87a107.63,107.63,0,0,1-24.36,27.43c-8,6.45-12.87,6-20.33-1.1-1.47-1.41-2.84-2.2-4.84-1.18-5.91,3-10.5.82-14.68-3.56-4.65-4.88-4.69-4.79-8.86.8-3.24,4.34-7.18,8-12.36,9.74s-10.59,1.7-14.32-3.56c-1.5-2.12-3.22-2.25-5.63-1.47-15.59,5.06-26.62-.73-31.68-16.4-.51-1.57-.55-4.4-3.3-2.89-9.63,5.3-20.37,5.77-30.84,7.46a28.89,28.89,0,0,0-8.46,2.78,45.29,45.29,0,0,1-24.73,4.51c-1-.09-2.31-.07-2.84-.67-4.26-4.72-9.3-3.19-14.62-2.62-8.45.9-16.47-.32-22.9-7.09-5.26-5.53-5.49-12.16-5.61-19,0-2.12.18-4.25.31-7.08-4.45,1.76-6.57,5.12-8.87,8.11-1.61,2.08-3,4.47-5.91,2.94-2.76-1.43-5.66-3.2-5.33-7.06.22-2.47.72-4.92,1-7.39.22-2.18.27-5-1.69-5.81s-3.65,1.6-4.92,3.33c-4.57,6.21-7.09,13.49-10.5,20.3-1.56,3.12-3.39,4.91-7,3.75-2.84-.92-3.82,1.46-5.27,2.85-8.29,7.94-18.69,10-27.31,4.74-6.43-3.91-11.48-9.16-12.1-17.23-.2-2.6-1.2-3.89-3.91-4.08a18.64,18.64,0,0,1-13.26-7.09c-2.41-2.85-3.95-2.78-5.49.93-3.65,8.74-7.87,17.19-14.46,24.23-8.21,8.76-20.23,9.31-29.33,1.29-5.81-5.13-5.68-5-10.88.66-6.86,7.46-13.71,15-22.38,20.46-2.76,1.75-4,4.21-5,7.13-4.51,13.93-12.06,26.17-21.3,37.42-4.82,5.87-9.12,6.52-13.42,2.39-2-1.89-2.32-4.29-2.54-6.81-1.3-14.22,3.92-25.58,15.1-34.35a18.84,18.84,0,0,1,3.56-2.71C815.9,442.2,818.44,432,819.54,421q2.07-21,4.17-42c.25-2.47.47-5.1,3.32-6.16,3.8-1.4,6.37.45,6.25,4.83-.42,14.74-1,29.47-3.47,44.06a30.79,30.79,0,0,0-.43,3.44c0,.8-.13,1.78.86,2.12s1.55-.37,2.13-1c7.06-7.06,14-14.31,18.66-23.19,3-5.65,1.5-12.37,3.51-18.41,1.42-4.28,2.63-8.61,5.41-12.18,3.54-4.54,7.44-3.91,9.92,1.24,2.78,5.77,1.18,11.43-.55,16.94A95.22,95.22,0,0,1,863.85,404c-3.1,6.39-2.89,9.8,1.4,13.17,4.11,3.24,11.06,3,15.19-.88,7.44-7,12.08-15.76,15.37-25.27a77.17,77.17,0,0,0,2.74-10,5.05,5.05,0,0,1,4.19-4.32c2.29-.51,3.8.83,4.91,2.63,2.18,3.52,3.53,7.52,6.3,10.7,5.11,5.88,9.45,5.74,13.93-.5,1.59-2.21,3.66-4,6.27-2.4,3.44,2.09,5.6,5.48,4.78,9.62-.84,4.3-.65,8.59-.77,12.88-.18,6.43,3.89,9.8,10.28,8.26,9.43-2.28,14.55-9.34,16.94-17.89,2.06-7.38,6.08-14,7.67-21.5.46-2.18,2.91-3.22,5.07-3.56,2.47-.4,3.45,1.66,4.23,3.49,1.3,3.08,3,3.22,5.87,1.7,9.6-5.15,10-4.93,14.51,5.14a12.25,12.25,0,0,1,.85,1.8c1.11,4.51,2.92,4,6,1.35,8.9-7.74,12-6.65,14.75,4.75,1.64,6.72.6,13.54.78,20.31.15,5.69,1.87,8.28,7.5,9.29,6.71,1.21,13.39.86,19.13-3.36,9.5-7,18.82-14.21,25.12-24.53,2.63-4.31,6.31-4.19,9.46-.38,4.89,5.9,6.69,12.88,7.54,20.19.39,3.46,1.74,4.34,5.23,3.8,8.76-1.35,17.45-2.54,24.72-8.32,3-2.38,5.13-4.85,5.74-8.85.88-5.72,2.3-11.36,3.72-17,.71-2.78-.09-3.74-2.84-3.39-8.07,1-16.23,1.49-24.16,3.49a20.37,20.37,0,0,1-3.92.74c-3,.18-4.68-2-5.56-4.22-1-2.57,1.69-3.41,3.35-4.1,7.59-3.17,15.69-4.25,23.78-5.28,1.65-.21,3.32-.19,5-.32,5-.4,8.95-1.49,9-8,0-3.19.58-7.14,4.64-8.69,2.77-1.06,5-.9,5.5,2.64a35.23,35.23,0,0,1,.87,5.88c-.08,3.93,1.61,4.89,5.28,4.15,17.59-3.57,35.22-6.92,52.8-10.56,4.1-.85,5.74.4,6.46,4.38.76,4.24-1,5.39-4.89,6.07-18.66,3.26-37.26,6.86-55.89,10.28-3,.56-4.17,2.19-4.89,5.25-2.42,10.14-5.11,20.22-10.51,29.36-3.42,5.78-2.36,13.42,2,17.43a14.76,14.76,0,0,0,18,1.49,38.07,38.07,0,0,0,12.37-12.74,95.47,95.47,0,0,1,16.62-21.05c3.82-3.62,8.16-6,13.52-3.7s6.33,6.72,6.23,11.91A52.59,52.59,0,0,1,1203.6,419c-.83,2.83-.94,5.48,1,8,3.1,4,5.29,4.2,8.91.65,5.49-5.39,9.27-12.11,14.13-18,3.91-4.73,7.67-9.7,13-12.9,8.42-5,13.48-2.94,16.35,6.39.23.75.58,1.84,1.13,2,1.16.4,1.64-.8,2.16-1.62a17.35,17.35,0,0,0,3.19-11.06c-.8-13.05-1.06-26.21,3.75-38.78a33.74,33.74,0,0,1,2.78-5.24c1.58-2.6,4.1-3.31,6.93-2.85s3.46,3,3.74,5.27a87.46,87.46,0,0,1-2.72,34.92c-.68,2.39-1.58,4.71-2.44,7-2.47,6.63-1.13,10,5.32,13.12a23.18,23.18,0,0,0,12.09,2.45c4.1-.35,7.19,1,8.59,5.11Zm-50.4-1.07c-2.09-1.87-4.28-3.81-6.44-5.77-1.64-1.49-3.2-1.52-4.8.07a66.21,66.21,0,0,0-13.39,19c-.8,1.71-1.06,3.51.56,5,1.81,1.71,3.62,1.08,5.47,0,7.24-4.09,12.43-10.37,17.67-16.57A12.2,12.2,0,0,0,1251.19,416.44Zm-53.64-11.71c-10.12,7.89-18,17.95-25.86,28a2.37,2.37,0,0,0,0,3.2,3.8,3.8,0,0,0,4.13,1c3-.88,5.06-3,7.06-5.27A65,65,0,0,0,1197.55,404.73ZM1066,423.55c3.86-.77,7.68-1.73,11.57-2.25,7.44-1,10.44-6.12,7.47-13.09-.64-1.48-1.62-3.06-3.17-1.22C1077,412.8,1070.81,417.29,1066,423.55Z" transform="translate(-64.52 -305.39)"/><path d="M743.47,430.74c-10,.64-21.38-1.45-32.58-4.89-1.76-.54-3.39-1-5.25.06-14.25,8-35.94,3.63-46.9-10.21-2.45-3.09-4.51-4-8.33-2.66-5.55,2-10.49.64-14-4.41-2.26-3.22-4-4.52-7.56-.61-6.26,6.81-16.87,9-22.42,4.12-4.93-4.37-8-4.11-14.08-2.09-9,3-16.58-.22-19.84-10.54-1.17-3.69-2.22-6.07-6.64-3.38a9.07,9.07,0,0,1-7.33.58c-3.91-1.33-5.25.64-6.69,3.64-5.17,10.8-12.6,20.22-19.09,30.21a13.8,13.8,0,0,0-2.14,7c-1.11,16.72-3.19,33.39-9.35,49-3.39,8.61-6.88,17.69-15.32,23.37-4.28,2.87-9,3.62-13.23,1.63-4-1.87-5.45-6.12-5.95-10.79-1.2-11.25,4-20.75,8.24-30.31,5.56-12.59,13.56-23.88,22.53-34.37,3.64-4.25,3.58-9.1,3.35-14.08-.16-3.4,1.63-8.14-1-9.8-2.07-1.28-4.07,3.78-6.79,5.34-7.11,4.07-13.39,10-22.86,6.68-8.39-2.92-14.71-10.77-14.09-20.53,1.1-17.28,9-30.58,25-38.45,3.9-1.92,7.53-1.79,11.07,1.31,3.79,3.33,7.3,6.83,9.24,11.5,1.13,2.7,2.46,3.31,4.88,1.73,3.41-2.24,5.15-.46,5.46,2.74.8,8.37.54,16.77.32,25.17,0,1-.42,2-.4,2.94,0,1.4-.66,3.34,1.24,3.85,1.54.42,2.05-1.38,2.84-2.38,5.8-7.24,7.95-16.06,9.84-24.73,1.21-5.63,5.12-7.8,9.07-10.39,1.61-1.06,3.08-.3,4.33,1.18a39.19,39.19,0,0,0,4.89,4.92c2.47,2,5,2,6.73-1s4.63-4.24,7.26-5.91c3.44-2.19,5.14-1.37,5.5,2.74.27,3.13.14,6.31,1.08,9.35a23.39,23.39,0,0,0,1.94,5.08c3.24,5.48,7.61,5.9,11.17.75,4.44-6.4,8.49-13.06,14.71-18,4.47-3.56,9.13-6.71,15.17-6.78,1.66,0,3.93-.42,4.69,1,2.57,4.86,8,8,7.55,14.79a16.65,16.65,0,0,0,8.4,15.82c3.19,1.93,5.29,1,6.57-2.38,2-5.27,4.08-10.5,6-15.78,2.72-7.25,13.17-14.16,20.42-13.43,6.35.64,10.58,6.56,8.5,11.9-2,5-6.65,5.8-10,1.66-3.15-3.88-4.46-3.89-7.32.38-1.73,2.58-4.06,4.75-4.84,8-2.89,12.16,3.44,22,16.76,25.14,4.32,1,8.78,2,13.32,1.51,3.33-.38,5.4-1.42,4.67-5.76a20.16,20.16,0,0,1,6-18.18,9.44,9.44,0,0,1,10-2.69c4,1.24,4.06,4.8,4.24,8.15.16,3.16.13,6.34-1.22,9.28-1.44,3.14-.51,5,2.71,6.09a66.7,66.7,0,0,0,16.55,3.32c22.32,1.43,44.51-.41,66.71-2.08,1.66-.13,4-1.64,4.73.94.85,2.81-1.73,3.55-3.68,4.42-6.3,2.84-13.17,3.48-19.82,4.85A202.08,202.08,0,0,1,743.47,430.74Zm-254.87-37c0,10.07,4.49,16.5,11.57,18.13,6.19,1.43,10.76-1.46,15-9.47a8.26,8.26,0,0,0,1-1.72c.7-2.9,4.24-6.51-1.87-7.86-.49-.11-.9-.94-1.19-1.52-2-4.07-4.93-7.43-7.77-10.89-3.92-4.8-8.42-4.9-12.22,0C489.7,384.82,488.85,390,488.6,393.73Zm30.29,53c-8.7,10.27-15.27,20.37-18.74,32-1.51,5.1-2.26,10.92,2.06,15.53,3.21,3.43,6.15,2.82,8-1.41,5.69-12.92,6.47-26.91,8.92-40.53C519.39,451,519,449.51,518.89,446.78ZM621,402.46c5,.3,5.88-4.31,7.27-7.75,1.48-3.65-2.63-2.79-4.21-4a48.25,48.25,0,0,1-4-2.9c-3.49-3.32-6.19-2.86-8.07,1.5C609.54,395,614.39,402.44,621,402.46Z" transform="translate(-64.52 -305.39)"/><path d="M88.92,375.46c2.13-2.71,4.34-5.36,6.35-8.15a9.33,9.33,0,0,1,5.68-3.65c11.2-2.9,17.35.49,19.49,12.41,2,11.09,2.49,22.36,4.37,33.45.27,1.55-.23,3.83,2,4,1.64.14,2-1.93,2.68-3.23,3.44-7.06,5-14.73,6.81-22.27,1.49-6,5.91-8.53,11.92-6.49,2.18.73,2.39,2.36,2.73,4.23,1.39,7.67,3.31,15.15,6.83,22.24,1.87,3.76,3.95,5.82,8.35,5.24,1.86-.25,4.33-.78,5.44,1.37,1.26,2.43-1,4-2.29,5.54-4.86,5.68-14.33,5.61-19.22-.06a27.51,27.51,0,0,1-2.43-3.15c-4.68-7.29-4.72-7.32-8.85.64-2.91,5.62-6.33,10.42-13.21,11.75-4.84.94-8.14-.71-10.4-4.76-2.47-4.42-3.42-9.27-4-14.26-1.16-10.36-2.5-20.69-3.8-31-.22-1.79-.26-4.11-2.32-4.55s-3,1.75-4.05,3.18c-8.5,11.69-15.13,24.17-16.37,38.9A10.16,10.16,0,0,1,81.68,423c-2,2.13-4.34,3.24-7.15,2.15a6,6,0,0,1-4.16-6.63C71.63,407,71.89,395.38,73.94,384c1.41-7.83,2-15.75,2.94-23.63.29-2.47-.54-3.45-2.94-3.25-1.32.11-2.65.32-4,.34-2.88.06-4.88-1.37-5.37-4.16s1.82-3.55,4-4c8.19-1.77,12.89-6.11,12-15.17-.28-2.74.64-5.58.83-8.39.64-9.57,5.29-13.57,15-12.83,5,.37,7.61,3.06,7.41,8-.36,9.14-5,16.69-9.84,24a17.74,17.74,0,0,0-3.28,8.61c-.67,7.22-1.77,14.4-2.69,21.6Z" transform="translate(-64.52 -305.39)"/><path d="M288.72,375.76c2.38,2.95,1.85,5.18,1.95,7.24a42.45,42.45,0,0,0,4.61,17.15c3,5.9,6.27,6.5,11.38,2.17,5.82-4.93,8.48-11.84,11.18-18.59,3.9-9.74,6.45-19.84,6.35-30.47,0-3,1.06-5.69,4.17-6.7,2.92-1,4.59,1.07,6.09,3.2,2,2.77,4.78,5,3.39,9.25-.7,2.11,1.09,1.72,2.48,1.1,9.25-4.11,11-3.51,16.66,4.78A37.47,37.47,0,0,1,363,379c3.23-2.89,4.31-6.51,6.6-9.22a43.06,43.06,0,0,1,4.27-4.85c4.71-4.14,7.94-3.74,11.46,1.52,3.18,4.74,5.34,9.83,5.17,15.79-.22,7.95.09,15.92-.15,23.87-.17,5.5,2.06,9.5,6.95,11.52,4.7,1.94,8.69-.54,12.32-3.42,1.73-1.37,2.64-4.69,5.37-3.62,2.91,1.14,1.71,4.4,1.73,6.71.07,8.89-12.35,15.43-20.56,11.2-11.23-5.78-16.67-14.69-16.21-27.33.24-6.46,0-12.93,0-19.4,0-1,.29-2.22-.77-2.7-1.54-.7-1.94.91-2.52,1.75-5.51,8-8.86,17-11.32,26.35-.69,2.62-.1,6.51-4.68,6.37-3.3-.11-8.18-4.66-8.29-8.09-.25-7.46-.26-14.92-.29-22.39a40.94,40.94,0,0,0-.94-9.37c-.34-1.45-.35-3.33-2-3.68-2-.41-2.85,1.49-3.61,2.88-5.34,9.83-9.36,20.15-10.71,31.33-.65,5.34-2.42,6.48-6.9,3.38-3.86-2.67-6.28-2.38-9.56,1.28-8.46,9.44-17.28,9.45-26.12.3-6.36-6.58-10.68-14.3-11.5-23.69-.27-3.05.38-5,3.74-5C287.07,380.56,288.4,379.22,288.72,375.76Z" transform="translate(-64.52 -305.39)"/><path d="M205.6,330.9c-.35,7.21,1.32,14.59-1.74,21.59a.69.69,0,0,0,0,.49c3.92,10.74-4.89,15.77-10.15,22.37-1,1.28-2.35,2.55-4.27,1.68-1.77-.81-1.92-2.49-2.11-4.19-.52-4.51.72-8.9.81-13.35.24-11.73.06-23.48,1.16-35.18.77-8.18,3.15-15.36,12-18.45,2.57-.89,3.48-.72,3.72,2.25A156.3,156.3,0,0,1,205.6,330.9Z" transform="translate(-64.52 -305.39)"/><path d="M211.77,389.4a6,6,0,0,1-1.23,4.23c-3.61,4.49-7.2,9-10.89,13.41a3.37,3.37,0,0,1-4.86.75c-2-1.35-3.59-2.82-3-5.65C192.91,397,203.5,387,208.56,386.4,211,386.09,211.93,387.17,211.77,389.4Z" transform="translate(-64.52 -305.39)"/><path d="M145.46,340.58c2.87-.17,5.6.28,5.33,4.68-.41,6.91-4.08,11.89-9.18,11.09-4.73-.75-4.4-5.18-4.39-8.79C137.22,342,139.06,340.46,145.46,340.58Z" transform="translate(-64.52 -305.39)"/><path d="M296.66,323.59c0,4.79-2,7.1-6.41,6.87-3.94-.22-5.19-3.33-5.6-6.5-.47-3.67,3.31-8.1,6.48-8.21C294.68,315.63,296.67,318.45,296.66,323.59Z" transform="translate(-64.52 -305.39)"/></g><path d="M835.91,356.27a6.54,6.54,0,0,1-6.77,4.21,5.49,5.49,0,0,1-4.37-3.26c-1-3.11,2.35-6.12,3.58-7.21,1.06-.95,3.24-2.88,5.06-2.18,1.33.5,1.81,2.17,2.27,3.57A7.27,7.27,0,0,1,835.91,356.27Z" transform="translate(-64.52 -305.39)"/><path d="M831.77,355.23" transform="translate(-64.52 -305.39)"/></g></svg>