<?xml version="1.0" encoding="utf-8"?>
<!-- Generator: Adobe Illustrator 25.4.1, SVG Export Plug-In . SVG Version: 6.00 Build 0)  -->
<svg version="1.1" id="Layer_1" xmlns="http://www.w3.org/2000/svg" xmlns:xlink="http://www.w3.org/1999/xlink" x="0px" y="0px"
	 viewBox="0 0 216 216" style="enable-background:new 0 0 216 216;" xml:space="preserve">
<style type="text/css">
	.st0{stroke:#000000;stroke-width:3;stroke-miterlimit:10;}
	.st1{fill:#FFFFFF;stroke:#000000;stroke-width:3;stroke-miterlimit:10;}
	.st2{fill:none;stroke:#FFFFFF;stroke-width:3;stroke-linecap:round;stroke-miterlimit:10;}
</style>
<path class="st0" d="M89.88,160.23c-3.37,3.41-3.77,9.33-0.9,13.16c1.53,2.04,3.94,3.76,4.04,6.3c0.15,3.95-5.85,5.94-2.9,9.83
	c0.69,0.92,1.67,1.6,2.75,2c3.6,1.35,5.53,5.95,7.63,8.88c5.39,7.51,14.75,11.98,23.98,11.45s18.02-6.03,22.52-14.11
	c1.85-3.32,2.04-8.2,5.74-9.08c0.68-0.16,3.17-0.88,4.26-1.46c2.62-1.39,2.25-2.71,1.96-5.66c-1.07-2.16-3.57-1.25-4.41-4.28
	c-0.67-3.17-2.11-5.72,1.48-7.72c1.42-0.79,2.36-2.32,2.07-3.92c-0.41-2.28-2.06-3.27-3.83-4.08c-3.57-1.63-4.84-5.24-4.1-9.1"/>
<path class="st1" d="M154.51,146.41c2.87-8.93-0.48-13.76-0.05-20.99c0.69-11.45,10.03-14.93,17.34-25.86
	c9.83-14.72,11.71-36.57,4.86-53.27c-9.64-23.51-34.45-31.89-46.47-35.74c-11.81-3.78-24.45-5.49-36.69-3.47
	c-6.57,1.09-20.22,5.33-31.83,17.62c-2.38,2.52-10.31,11.36-14.29,25.58c-1.55,5.56-5.51,22.7,2.11,40.14
	c7.23,16.53,20.15,26.56,20.15,26.56c16.51,11.79,12.03,14.72,14.04,27.95c0.9,5.94,1.76,12.54,6.36,16.4
	c5.61,4.7,15.17,6.05,22.47,6.43c6.25,0.32,12.46-0.08,18.8-1.94c5.93-1.74,11.71-3.27,16.77-8.5
	C149.02,156.34,152.54,152.54,154.51,146.41z"/>
<path class="st0" d="M68.33,90.07c0,0.01-0.01,0-0.01,0c0,4.73-4.06-6.04-5.32-8.81c-1.39-3.05-1.79-4.96-1.83-8.32
	c-0.06-4.53,0.3-9.06,1-13.53c1.58-10.19,4.78-24.3,13.51-30.67c2.24-1.64,4.77-2.84,7.36-3.84c11.14-4.29,23.73-2.47,34.99,1.22
	c0,0,0,0,0.01,0.01c0.34,1.65-0.69,1.09-2.07,2.05c-1.39,0.96-3.08,1.35-4.72,1.75c-6.04,1.46-12.1,3.29-17.34,6.63
	c-7.3,4.64-12.59,11.91-16.47,19.64c-2.57,5.13-4.6,10.54-6.04,16.1c-0.84,3.25-1.25,5.04-1.89,8.33
	C69.14,82.53,68.53,88.18,68.33,90.07z"/>
<path class="st2" d="M143.66,179.35c-3.5,2.17-7.61,3.27-11.67,4.35c-2.38,0.63-4.77,1.26-7.32,1.32c-1.36,0.03-2.75-0.11-4.14-0.25
	c-5.88-0.58-11.85-1.19-17.71-3.4c-0.1-0.04-0.22-0.07-0.26,0.02c-0.04,0.08,0.15,0.2,0.13,0.1"/>
</svg>
