<?xml version="1.0" encoding="utf-8"?>
<!-- Generator: Adobe Illustrator 25.4.1, SVG Export Plug-In . SVG Version: 6.00 Build 0)  -->
<svg version="1.1" id="Layer_1" xmlns="http://www.w3.org/2000/svg" xmlns:xlink="http://www.w3.org/1999/xlink" x="0px" y="0px"
	 viewBox="0 0 216 216" style="enable-background:new 0 0 216 216;" xml:space="preserve">
<style type="text/css">
	.st0{fill:none;stroke:#000000;stroke-width:3;stroke-miterlimit:10;}
	.st1{stroke:#000000;stroke-width:3;stroke-miterlimit:10;}
	.st2{fill:none;stroke:#FFFFFF;stroke-width:3;stroke-linecap:round;stroke-miterlimit:10;}
</style>
<path class="st0" d="M38,150.11c-4.06,17.74-8.42,29.02-14.17,46.28c-0.08,0.24-0.16,0.5-0.08,0.73c0.19,0.58,1.03,0.52,1.61,0.33
	c6.61-2.1,13.23-4.2,19.84-6.3c2.47-0.79,4.95-1.57,7.42-2.36c6.7-2.13,13.41-4.26,19.92-6.89c1.97-0.8,3.92-1.64,5.85-2.52
	c1.16-0.53,2.35-1.12,3.1-2.15s0.83-2.65-0.14-3.46c-1.07-0.9-2.67-0.4-4.04-0.13c-2.81,0.56-5.71-0.05-8.51-0.67
	c-0.56-0.12-1.15-0.27-1.53-0.69c-0.9-1,0.03-2.53,0.85-3.6c1.59-2.08,2.78-4.45,3.51-6.96c0.32-1.1,0.5-2.42-0.25-3.29
	c-0.87-1-2.46-0.82-3.75-0.5c-3.28,0.82-6.48,2-9.51,3.52c-0.37,0.19-0.77,0.38-1.18,0.33c-1.25-0.14-1.21-1.97-0.85-3.17
	c1.09-3.65,1.71-7.44,1.83-11.24c0.02-0.65-0.12-1.49-0.75-1.62c-0.33-0.06-0.65,0.11-0.94,0.28c-3.39,2.07-6.22,5.36-10.12,6.06
	c-0.93-2.12-0.19-4.55,0.09-6.86c0.29-2.4,0.06-4.87-0.69-7.17c-0.16-0.5-0.37-1.02-0.8-1.31c-1.15-0.78-2.53,0.61-3.22,1.81
	C40.04,141.07,39.13,145.81,38,150.11z"/>
<path class="st1" d="M29.28,180.56c0.37-1.03,1.54-1.41,2.32-0.76c0.28,0.23,0.54,0.47,0.8,0.72c0.61,0.57,1.22,1.14,1.7,1.84
	c0.54,0.78,0.89,1.69,1.4,2.49c0.47,0.74,1.08,1.39,1.45,2.2c0.27,0.59,0.42,1.25,0.64,1.87c0.43,1.16,1.18,2.21,1.29,3.47
	c0.01,0.07,0.01,0.15-0.02,0.22c-0.04,0.1-0.12,0.16-0.2,0.22c-0.52,0.37-1.04,0.75-1.56,1.12c-0.46,0.33-0.92,0.66-1.41,0.93
	c-0.86,0.47-1.8,0.75-2.73,1.03c-2.17,0.67-4.31,1.45-6.42,2.32c-0.2,0.08-0.41,0.17-0.63,0.18c-0.21,0.01-0.41-0.06-0.6-0.12
	c-0.54-0.17-1.14-0.4-1.35-0.96c-0.08-0.21-0.09-0.45-0.08-0.69c0.08-1.43,0.43-2.83,0.93-4.16
	C26.34,188.46,27.89,184.4,29.28,180.56z"/>
<path class="st1" d="M121.28,51.34c0.49,0.61,1.48,0.54,2.04,0.52c2.81-0.06,5.6,1.58,11.18,4.87c6.45,3.81,16.62,12.06,21.28,21.96
	c1,2.13,1.9,4.41,3.16,6.4c1.35,2.14,4.44,2.47,6.21,0.7c8.06-8.04,15.51-16.65,22.27-25.72c0.58-0.78,1.18-1.63,1.16-2.59
	c-0.02-1.1-0.82-2.04-1.59-2.87c-9.76-10.45-21.55-18.96-33.25-27.38c-1.51-1.09-3.06-2.19-4.88-2.66
	c-4.24-1.09-8.56,0.99-11.3,4.19c-7.46,8.72-3.75,3.76-12.64,14.16C122.56,46.1,120.15,49.94,121.28,51.34z"/>
<path class="st0" d="M146.16,28.04c4.98-4.46,10-8.85,15.07-13.17c1.28-1.09,2.59-2.19,4.06-2.74c1.32-0.49,2.71-0.49,4.04-0.32
	c3.89,0.48,7.47,2.35,10.85,4.47c4.26,2.66,8.32,5.76,12.12,9.25c1.77,1.62,3.58,3.52,4.02,6.21c0.27,1.66-0.02,3.43-0.33,5.14
	c-0.61,3.37-1.3,6.76-2.6,9.9c-2.08,5.03-5.57,9.07-8.98,12.99c-0.14,0.16-0.34,0.32-0.48,0.21c-0.14-0.11,0.17-0.44,0.17-0.22"/>
<path class="st0" d="M43.99,137.31c5.82-9.44,11.67-18.91,18.82-27.39c4.35-5.16,9.15-9.92,13.94-14.67
	c17.08-16.93,34.16-33.86,51.24-50.78"/>
<path class="st0" d="M81.97,176.13c10.75-13.53,19.71-24.15,25.58-30.99c16.95-19.76,25.71-28.49,42.1-48.24
	c8.22-9.91,14.61-18.08,18.4-22.98"/>
<path class="st0" d="M56.51,146.18c4.08-2.73,7.32-6.51,10.5-10.26c22.83-26.93,45.17-54.65,72.54-76.95"/>
<path class="st0" d="M71.85,158.1c20.57-28.72,45.45-57.55,75.64-84.69c3.3-2.96,6.6-5.86,9.91-8.68"/>
<path class="st2" d="M146.64,36.34c3.73,0.9,7.18,2.69,10.59,4.45c1.99,1.03,4,2.08,5.75,3.5c0.93,0.76,1.78,1.62,2.62,2.47
	c3.57,3.63,7.19,7.32,9.71,11.74c0.04,0.07,0.11,0.16,0.19,0.14c0.08-0.02,0.03-0.19-0.03-0.12"/>
</svg>
